# xmcd
#
# Track frame offsets: 
#        150
#        16890
#        33852
#        50720
#        72305
#        99530
#        120027
#        130867
#        147530
#        166155
#        179265
#        197422
#        216340
#        230465
#
# Disc length: 3239 seconds
#
# Revision: 4
# Processed by: cddbd v1.5.2PL0 Copyright (c) Steve Scherf et al.
# Submitted via: ExactAudioCopy v0.95b3
#
DISCID=bd0ca50e
DTITLE=Various Artist - Hit Parade Italiana - Disc 1
DYEAR=2001
DGENRE=Pop
TTITLE0=Lucio Battisti - Mi Ritorni In Mente
TTITLE1=Francesco De Gregori - Alice
TTITLE2=Lucio Dalla - 4_3_1943
TTITLE3=Patty Pravo - Pazza Idea
TTITLE4=Antonello Venditti - Sotto Il Segno Dei Pesci
TTITLE5=Riccardo Cocciante - Margherita
TTITLE6=Gino Paoli - La Gatta
TTITLE7=Ivan Graziani - Agnese
TTITLE8=Roberto Vecchioni - Luci A San Siro
TTITLE9=Adriano Celentano - Si È Spento Il Sole
TTITLE10=Fiorella Mannoia - Quello Che Le Donne Non Dicono
TTITLE11=Eros Ramazzotti - Una Storia Importante
TTITLE12=Mina - E Se Domani
TTITLE13=Paolo Conte - Via Con Me
EXTD=YEAR: 2001
EXTT0=
EXTT1=
EXTT2=
EXTT3=
EXTT4=
EXTT5=
EXTT6=
EXTT7=
EXTT8=
EXTT9=
EXTT10=
EXTT11=
EXTT12=
EXTT13=
PLAYORDER=
